<svg id="Layer_1" data-name="Layer 1" xmlns="http://www.w3.org/2000/svg" viewBox="0 0 283.46 283.46"><defs><style>.cls-1{fill:#020302;}</style></defs><path class="cls-1" d="M283.46,167.49v3.16A11.34,11.34,0,0,1,272.13,182H243.37A11.34,11.34,0,0,1,232,170.65v-3.16h-.24A103.1,103.1,0,0,0,154.7,67.72a104.09,104.09,0,0,0-25.93-3.28h0V185.13a5.67,5.67,0,0,1-8,5.17l-.78-.37c-26.27-12.39-42.63-39.28-42.63-68.34V24.13A11.34,11.34,0,0,1,88.65,12.79h40.09v0h0A157.16,157.16,0,0,1,154.7,15,154.64,154.64,0,0,1,283.46,167.49Z"/><path class="cls-1" d="M163.5,93.57c26.28,12.41,42.63,39.31,42.63,68.37v78.48l0,0v18.94a11.33,11.33,0,0,1-11.34,11.34H154.67a156.08,156.08,0,0,1-25.93-2.16A154.6,154.6,0,0,1,.47,128.08,11.3,11.3,0,0,1,11.78,116H40.84a11.36,11.36,0,0,1,11.29,10.29,103,103,0,0,0,102.54,92.78h0V98.37a5.67,5.67,0,0,1,8-5.17Z"/></svg>